<svg id="Livello_1" data-name="Livello 1" xmlns="http://www.w3.org/2000/svg" viewBox="0 0 453.56 360.89"><defs><style>.cls-1{fill:#092f46;}.cls-2{fill:#0a3248;}.cls-3{fill:#f4b614;}.cls-4{fill:#fbf4da;}.cls-5{fill:#0a2f44;}</style></defs><title>logo</title><path class="cls-1" d="M279.21-109.27c10.57-.67,20.68,9.38,21.71,20.08.76,7.91,1.7,15.83,2.94,23.7,1.05,6.66,1.52,13.41,2.28,20.12.07.57-.52,1.46.68,1.66s1-.71,1.44-1.31c3.11-4.37,6.33-8.67,9.57-12.94,3.62-4.77,7.34-9.46,10.94-14.24,6.72-9,13.37-18,20.08-26.92,2.86-3.81,5.86-7.52,8.67-11.36,3.31-4.53,7.9-6,13.09-5.08,11.35,1.93,22.63,4.22,33.95,6.27,9.33,1.69,18.7,3.21,28,4.86,5.83,1,11.63,2.2,17.45,3.26,6.76,1.23,13.53,2.42,20.3,3.62l25.22,4.45c6.78,1.2,13.57,2.34,20.34,3.58,7.7,1.41,15.52,2.42,23.05,4.48,9.78,2.67,16.67,11.59,15.74,21.24-.44,4.49-1.37,8.94-2.16,13.4q-2.28,12.84-4.66,25.67C546.48-17,545-9.31,543.66-1.58c-1.69,10-3.14,20-4.88,29.92-1.64,9.43-3.57,18.81-5.25,28.24s-3.15,18.9-4.83,28.33c-2.27,12.7-4.23,25.45-6.8,38.1-.95,4.68-1.09,9.53-3.33,13.87-3.67,7.15-9.63,11-17.5,12.31-6.23,1-12.11-.92-18.1-1.83-6.79-1-13.54-2.37-20.32-3.52s-13.4-2.16-20.09-3.32c-7.63-1.32-15.25-2.78-22.88-4.08-7.83-1.34-15.69-2.52-23.52-3.84-8.16-1.37-16.32-2.74-24.45-4.26-10.95-2-22-3.63-32.91-5.69-8.43-1.58-14.59-5.69-18.23-13.47-2-4.35-1.5-8.9-.69-13.39.69-3.91,1.71-7.77,2.53-11.66.1-.49.54-1.3-.39-1.53s-1.33.43-1.74,1c-2.24,3-4.29,6.2-6.7,9.08-5.89,7-10.82,14.72-16.36,22a63.65,63.65,0,0,0-4.41,6.09c-2.52,4.26-6.77,5.72-11.08,6.48-7.91,1.4-15.92,2.19-23.88,3.3-9.94,1.39-19.86,2.9-29.81,4.26-9.52,1.31-19.1,2.29-28.59,3.83-9.84,1.6-19.75,2.59-29.6,4.08-7.17,1.09-14.38,2.16-21.6,2.55a20,20,0,0,1-12.9-4.07c-6.12-4.48-8.62-10.78-9.42-18.12-.82-7.63-2.06-15.21-3.06-22.82-.79-6.06-1.45-12.14-2.25-18.2s-1.88-11.92-2.44-17.91c-.6-6.27-1.57-12.49-2.34-18.73-.9-7.37-2-14.71-3-22.07-.63-4.76-1.17-9.53-1.82-14.29-.81-6-1.74-11.92-2.54-17.89-.64-4.77-1.11-9.56-1.73-14.34-.81-6.23-1.73-12.44-2.54-18.67-.78-6-1.49-12-2.22-18-.2-1.65-.34-3.31-.58-4.95-1.09-7.71,1.79-13.65,7.52-18.77,5-4.46,10.93-5.7,17.17-6.54,8.83-1.2,17.64-2.51,26.48-3.67,6.16-.82,12.35-1.43,18.51-2.21,7.88-1,15.75-2.11,23.64-3.1,6.24-.78,12.51-1.4,18.75-2.18s12.45-1.7,18.68-2.49c5-.64,10.09-1.16,15.13-1.79,6.32-.79,12.62-1.79,18.95-2.43C270.55-108.38,274.77-109.37,279.21-109.27ZM343,52.39l-.15-.21.16.2c-.38,0-.54.17-.4.55l0,.1c-.8-.11-.75.38-.66.91l0,0c-.6,0-.7.46-.73.93h0c-1.75.5-1.31,2.15-1.54,3.29-.9,4.47-1.51,9-2.38,13.47-1.82,9.39-3.75,18.75-5.59,28.13-.53,2.66.65,5.26,2.63,6.19h0c.09,1.1.48,1.82,1.77,1.32l.09.06c.08,1.84,1.72,1.55,2.75,1.8,6.66,1.66,13.45,2.64,20.22,3.78,5,.85,10,2,15.13,2.08l0,0a66.62,66.62,0,0,0,18.15,3.22l-.05,0c5,1.8,10.34,1.89,15.53,2.7a.53.53,0,0,1,.42.09,97.69,97.69,0,0,0,21.4,3.64.63.63,0,0,1,.44.1c.58.71,1.39.4,2.11.48a5.62,5.62,0,0,0,1.16.51c10.18,1.78,20.34,3.65,30.54,5.24,4.15.64,8.24,1.81,12.49,1.69a13.65,13.65,0,0,0,5.95,1l0,0a52.23,52.23,0,0,0,18.18,2.72c.65,0,.86-.5.95-1.06l.11-.09.12.06c.55,0,1.09.05,1.24-.67l.08.15-.11-.13c.92.18,1.57,0,1.48-1.12l.06,0c.38.07.54-.08.46-.47l0,0c.67.11.73-.34.76-.82h0l.49-.81,0-.15.12-.09.36-.7-.05,0c1-.31.72-1,.46-1.63v-.07c.37,0,.69-.13.76-.55.9-5,1.81-9.91,2.66-14.88.05-.25-.32-.57-.5-.85l.06-.53c.9-.6,1.62-1.24.36-2.19l.17-1c1.77-1.89,1.39-4.15,1.08-6.39l.12-1.07a1,1,0,0,0,.88-.85q2.92-16.45,5.84-32.91c.12-.68.2-1.43-.53-1.92.41-3.37.81-6.74,1.22-10.11,1.19-.58,2-1.31.92-2.67.05-.35.1-.7.14-1.06,1.48-.32,1.19-1.75,1.32-2.6,1.08-6.68,2.07-13.37,3.33-20,1.67-8.8,3.16-17.64,4.59-26.49.77-4.76,2-9.49,1.71-14.37l-.06,0c.65-.18.65-.73.77-1.26,1.07-5,1.91-10,2.74-15,1.92-11.79,4.1-23.54,6.18-35.31.52-3-1.62-6.41-4.24-6.84l0,0c-1.36-2.19-4.92-3.2-7.94-2.25l-1.08-.11c-.2-.27-.36-.73-.61-.78-4.38-.95-8.75-2-13.17-2.74-15.08-2.58-30.19-5-45.26-7.61-8.92-1.55-17.77-3.51-26.7-5-1.67-.29-3.51-1.57-5.31-.19l-1.06-.18c-1.59-1.4-3.43-1.27-5.32-.92l-1.61-.19c-.79-1.37-2.27-1.12-3.47-1.34-9.67-1.74-19.36-3.38-29-5.11-8-1.44-16.05-3-24.07-4.43-.85-.15-1.86-.34-2,1v0c-1,0-1,.74-1.18,1.45-2.21,8-3.77,16.27-6.21,24.27a13.1,13.1,0,0,0-.56,6l0,.19c-.26.34-.66.64-.77,1q-2.55,9.33-5,18.67a1.33,1.33,0,0,0,.49,1.63C354.28-37.23,352-27.6,349.42-18c-.63,2.37.14,2.62,2.15,2.63,8.51.05,17,.23,25.53.32,2.91,0,5.31,1.11,6.56,3.71a7.2,7.2,0,0,1-.85,7.77C381.86-2.3,380.9-1,380,.28c-10,14.59-20.07,29.17-30.53,43.46-.39.07-.62.27-.56.7v0c-1.2-.07-1.4.53-1,1.52l-.07.1c-1.22-.13-1.34.54-1.09,1.48l0,0c-.37,0-.53.13-.36.5l-.11.19c-1.29-.23-1.33.49-1.09,1.42l-.1-.09.07.12c-.38,0-.54.12-.38.51l-.1.15c-1.23-.24-1.29.51-1.18,1.4l0,0A.5.5,0,0,0,343,52.39ZM275.46-2.35c.38,0,.54-.16.4-.55l.06-.1c.75.16.75-.34.74-.84l0,0c.88,0,1.24-.33.85-1.21l0-.07c1.26.14,1.29-.71,1.26-1.59v-.17l.14-.07c.75-.06,1-.47.9-1.19l0,0c.54-.1.66-.5.69-1v0l.45-.63,0,0,.5-.63,0,0a.53.53,0,0,0,.51-.61l.11.15-.13-.13c1,0,1.24-.65,1.19-1.5h0c.86,0,1.19-.37.91-1.21h0c.66,0,.73-.41.74-.91v0c1.08,0,1.12-.74,1.12-1.52l.48-.6c.8,0,1.14-.43.93-1.23l0,0c.62,0,.7-.47.71-1h0l.5-.62,0,0c.86,0,1.22-.34.86-1.21l0-.07c1.34-.07,2-.67,1.5-2l.07-.11c.76.13.75-.39.76-.9a.32.32,0,0,1,.21-.38c.68-.07.92-.49.86-1.13l0,0,.54-.67a.3.3,0,0,1,.24-.36c.43-.07.77-.21.66-.75h0c1.28-.06,1.35-.93,1.21-1.88-1-6.51-1.86-13.05-2.74-19.58-.92-6.79-1.56-13.62-2.48-20.41-.83-6.1-1.37-12.23-2.26-18.32-.25-1.7-.47-3.75-2.59-4.54h0c-.51-2.57-3.85-4.59-7.51-4.26a138.07,138.07,0,0,0-14.4,1.76c-6.92,1.39-13.95,1.86-20.89,3-.75.12-1.68-.2-1.9.94a71.36,71.36,0,0,1-10.09,1.27c-.94-1-2.15-.63-3.24-.49-7.82,1-15.65,1.95-23.45,3.14-2.67.41-5.54.2-7.95,1.82l-1.08.12c-.21-.24-.37-.19-.51.07a3.16,3.16,0,0,1-2.16.44c-.95-.45-1.89-.86-2.64.31a2.13,2.13,0,0,1-1.61.29c-1.87-.54-3.74-1.19-5.32.65l-.49.06c-.82-1-2-.68-2.95-.56-9,1.19-18,2.45-27,3.65-.75.1-1.42.13-1.51,1.07l-1,.21c-.66-1.07-1.75-.82-2.65-.69-8.52,1.19-17,2.44-25.56,3.7-1.13.16-2.33.33-2.62,1.78l0,0c-.81-.19-1.19.15-1.2,1l0,0c-1.26-.08-1.6.9-2,1.77-1.3,2.7-.92,5.6-.54,8.33,1.28,9,2.45,18,3.62,27.07.52,3.94.46,8,2.15,11.76l0,0a29.72,29.72,0,0,0,1.63,11.22l0,0,.43.59,0,1.08c-.81.83-.49,1.82-.37,2.76Q123.7,2.17,125,12.25c1.09,8.54,2,17.11,3.36,25.62,1.23,7.72,1.61,15.54,2.93,23.27s1.8,15.54,2.92,23.28c.18,1.26-.46,3.11,1.31,4l.71,5.31a1.16,1.16,0,0,0-.55,1.13c1.24,10.21,2.42,20.42,3.82,30.61.19,1.4.5,3.45,2.81,3.52l.17.17c.68,2.13,2.53,3.07,4.87,2.48l1.63,0a2.54,2.54,0,0,0,2.27.4c3.92-.42,7.85-.83,11.74-1.43,1.2-.18,2.79.43,3.54-1.2l.51-.06c.76.94,1.83.67,2.73.53q9.65-1.47,19.33-2.69c11.43-1.44,22.82-3.15,34.24-4.71q14.11-1.93,28.24-3.79c8.72-1.14,17.35-2.84,26.11-3.7,2.05-.21,4.12-.75,3.39-3.68l.07-1.07c1.33-.39,1.21-1.64,1.44-2.59,2.31-9.57,4.34-19.2,6.76-28.75,1-4,2.3-7.95,2.23-12.15l0-.17c.64-.33.66-1,.83-1.59,3.92-13.23,6-26.9,9.72-40.18.2-.72,0-1.21-.72-1.43l-.14-.1c-1-1.48-2.65-1.24-4-1.37-9.58-.93-19.25-.73-28.76-2.46l0,0c.05-.4-.12-.57-.52-.48l-.05-.05c.09-.4-.08-.57-.47-.56a.49.49,0,0,0-.48-.62l0,0a13,13,0,0,1,.44-9.18c0-.06-.06-.16-.09-.24l.06-.09c1.47.18,1.25-.92,1.35-1.79l.44-.59.55-.7.34-.41c.57,0,.75-.45.8-1l.45-.6c1.1-.11,1.87-.47,1.3-1.79l.09-.13c1.25.17,1.34-.5,1.06-1.45l0,0c.68.07.73-.39.74-.88l0,0,.49-.65-.05.05a.51.51,0,0,0,.47-.64l.1.16Zm76.69-80.39-3.31,4.47q-14.16,18.8-28.31,37.6Q305.7-20.9,290.92-1.07c-2.31,3.1-4.6,6.2-7.06,9.51.73.11,1.07.18,1.41.2,7.78.5,15.56,1,23.35,1.47,6.15.34,8.95,4,7.5,10Q311,40.86,306,61.64c-2.35,9.79-4.6,19.61-6.9,29.42-.32,0-.43.22-.38.51,0,.06.14.09.21.13l.13-.68c.7.11.84-.52,1.12-.9,6-8.25,12-16.48,17.93-24.77q19-26.58,38.06-53.21c3.23-4.52,6.39-9.09,9.75-13.87-1.25-.09-2.2-.19-3.15-.22-7.71-.26-15.43-.49-23.14-.77-5.15-.19-7.75-4-6.35-8.93,2.45-8.61,4.8-17.23,7.13-25.87q6.06-22.44,12-44.92c.25-.12.41-.3.22-.57A4.21,4.21,0,0,0,352.15-82.74Z" transform="translate(-101.23 115.81)"/><path class="cls-2" d="M419.51,209.68c0-10.55,0-21.1-.05-31.65,0-1.81.36-2.4,2.3-2.37,8,.13,16-.11,23.94.11,7.31.2,13.71,2.74,17.86,9.13,4.54,7,5,23.33-5.47,29.4-1.93,1.12-1.63,2.09-.82,3.69q5.84,11.52,11.51,23.12c1.3,2.66,1.22,2.7-1.62,2.71-4.34,0-8.69-.07-13,.05a2.43,2.43,0,0,1-2.69-1.83c-3-7.11-6.17-14.18-9.31-21.25-1.35-3-4-1.17-6-1.32-1.84-.15-.93,1.76-.93,2.66q-.07,9.44.13,18.86c.05,2.08-.45,3-2.78,2.88-3.63-.2-7.27-.14-10.9,0-1.74,0-2.23-.48-2.22-2.24.09-10.64,0-21.28,0-31.92ZM435,197.63h0c0,1.06,0,2.12,0,3.18-.09,6.08-.09,5.88,6.09,6,6.78.08,10.13-5.55,8.81-11.71-.93-4.37-3.53-6.46-8-6.57-1.68,0-3.37.07-5,0s-2,.56-1.95,2C435.1,192.85,435,195.24,435,197.63Z" transform="translate(-101.23 115.81)"/><path class="cls-2" d="M369,175.73C364.75,183,360.65,190,356.56,197c-1.65,2.81-3.21,5.68-4.95,8.44a3.48,3.48,0,0,0,0,4.07c5.66,10.15,11.2,20.37,16.77,30.58.62,1.13,1.17,2.29,1.91,3.76-6.34,0-12.25,0-18.16,0-1.16,0-1.43-.79-1.83-1.59q-5.82-11.7-11.65-23.37a12,12,0,0,1-.62-1.17c-.55-1.52-1.84-1.22-2.92-1.09-1.34.16-.86,1.35-.86,2.14,0,7.54-.07,15.08.05,22.62,0,1.95-.44,2.61-2.49,2.52-4-.18-8-.11-12,0-1.37,0-1.83-.37-1.83-1.79,0-20.49-.12-41-.07-61.47,0-5,.22-4.91,5.42-4.67a75.66,75.66,0,0,0,9-.25c1.61-.12,1.89.47,1.88,1.92q-.09,11.56,0,23.15c0,.69-.55,1.81.52,2,.9.2,1.21-.86,1.58-1.53,4.28-7.81,8.58-15.61,12.78-23.46a3.31,3.31,0,0,1,3.45-2.11C357.88,175.83,363.2,175.73,369,175.73Z" transform="translate(-101.23 115.81)"/><path class="cls-3" d="M495.61,245c-7.7.24-14.7-1.49-20.2-7.25-3.27-3.44-4.64-7.78-5.36-12.35-.19-1.26.09-2.33,1.76-2.28a86.91,86.91,0,0,0,11.85-.54c1.46-.15,2.15.13,2.61,1.92,1.61,6.21,7.12,9.14,12.81,7.16a6.91,6.91,0,0,0,4.94-5.9c.34-2.57-.95-4.5-3-6.09-2.92-2.26-6.39-3.23-9.72-4.57-4.62-1.86-9.37-3.49-13.2-6.86a16,16,0,0,1-5.86-11.33c-.14-2.87-.44-5.79.44-8.66,2.26-7.39,7.49-11.3,14.71-13.12a30.76,30.76,0,0,1,10.7-.93c4.68.47,9.31,1.52,13.2,4.32,4.6,3.31,6.93,8,7.49,13.62.1,1,0,1.56-1.11,1.66l-11.81,1.09c-1.46.13-2.18-.33-2.33-2a6.72,6.72,0,0,0-5.53-5.9c-4.31-.8-7.57.47-9.19,3.42-1.21,2.18-.69,4.06.83,5.74,3.55,3.94,8.64,4.94,13.29,6.8,6.09,2.43,12.12,5,15.42,11.24,2.87,5.44,3,11,1.14,16.85a16.59,16.59,0,0,1-7.15,9.6C507.22,243.81,501.54,244.86,495.61,245Z" transform="translate(-101.23 115.81)"/><path class="cls-2" d="M161.19,174.1c6,.14,11.68,1.17,16.53,5.21,4.1,3.42,5.48,8,6.28,13,.2,1.19-.35,1.49-1.47,1.56-3.89.24-7.77.54-11.65.94-1.26.13-1.55-.25-1.84-1.46-1.68-7.05-6-7.17-11.25-6.25a4.87,4.87,0,0,0-4.06,4.07,5.59,5.59,0,0,0,2.1,5.91,29.78,29.78,0,0,0,7.54,3.73c4.33,1.71,8.72,3.27,12.75,5.68,8.11,4.84,10.64,12.26,9.35,21.09-1.17,8-6.15,13.22-13.7,15.69a32.79,32.79,0,0,1-24.32-1c-7.22-3.26-10.86-9.26-11.82-17-.2-1.62.24-2.1,1.92-2.16,3.62-.15,7.24-.51,10.84-.95,2.06-.26,2.85.34,3.31,2.48,1.35,6.21,7.86,9.24,13.69,6.61a6.64,6.64,0,0,0,1.44-11.46c-2.34-1.92-5.15-3-7.93-4.16-5.75-2.38-11.64-4.37-16.46-8.71-7-6.26-6-21.43.84-26.75A27.32,27.32,0,0,1,161.19,174.1Z" transform="translate(-101.23 115.81)"/><path class="cls-2" d="M260.6,208.61c.06-6.81.56-13.48,3.13-20,3.65-9.19,10.58-13.56,20-14.43a30.72,30.72,0,0,1,15.3,2,21.73,21.73,0,0,1,12.46,19.12c0,1.2-.37,1.55-1.49,1.55q-6.66,0-13.3.11c-1.09,0-1.24-.43-1.35-1.4-.54-4.64-2.95-7.38-6.61-7.68-5.06-.42-8.15,1.57-9.69,6.3a29,29,0,0,0-1.31,8.86c0,6.53-.57,13.08.6,19.58,1.15,6.35,6.26,9.77,11.89,7.89,3.79-1.27,5.08-4.48,5.56-8,.25-1.81.77-2,2.5-1.86a105.94,105.94,0,0,0,11.41.4c1.7,0,1.75.54,1.69,2-.56,12.95-9.54,21.61-22.5,21.84-6.54.11-12.69-1-18-5-6.15-4.74-8.28-11.62-9.59-18.83A69.12,69.12,0,0,1,260.6,208.61Z" transform="translate(-101.23 115.81)"/><path class="cls-2" d="M373.7,209.74c0-10.55.06-21.1-.05-31.65,0-2,.54-2.44,2.51-2.43,11.34.11,22.7.14,34,0,2.49,0,3,.66,2.75,2.93a49.61,49.61,0,0,0,0,7.71c.11,1.81-.39,2.45-2.3,2.41-6.2-.11-12.41,0-18.62-.09-1.89,0-2.48.54-2.41,2.4.13,3.19.07,6.39,0,9.58,0,1.21.16,1.81,1.65,2a107.37,107.37,0,0,0,14.79.06c3.14-.11,3.23-.18,3.24,3,0,2.58-.1,5.15.06,7.72.11,1.82-.37,2.43-2.3,2.38-4.87-.15-9.75.08-14.62-.09-2.31-.08-2.92.76-2.82,2.91.15,3.19.15,6.39,0,9.57-.1,2,.36,2.73,2.56,2.67,6.38-.16,12.77,0,19.15-.06,1.69,0,2.34.37,2.23,2.21-.2,3.1-.13,6.21-.07,9.31,0,1.26-.39,1.69-1.67,1.69-12.15,0-24.3-.07-36.45,0-1.83,0-1.67-1-1.67-2.2q0-16,0-31.92Z" transform="translate(-101.23 115.81)"/><path class="cls-2" d="M209.52,175.72c6.56,0,13.13.14,19.68-.07,2.55-.08,3.08.75,2.91,3a68.53,68.53,0,0,0,0,8c.06,1.62-.27,2.36-2.17,2.27-3.53-.18-7.09,0-10.63-.09-1.39,0-1.81.38-1.83,1.78q-.12,10.35,0,20.72c.08,10.18-.16,20.38-.2,30.57,0,1.49-.47,2-2,1.93-3.8-.11-7.62-.13-11.43,0-1.79.06-2.4-.36-2.39-2.31.12-14.08.12-28.15.09-42.22a73.91,73.91,0,0,0-.25-8.67c-.18-1.45-.69-1.72-2-1.7-3.37.05-6.74-.07-10.11,0-1.73,0-2.59-.37-2.47-2.36a75.47,75.47,0,0,0,0-8.77c-.11-1.88.64-2.15,2.28-2.13C195.87,175.77,202.7,175.72,209.52,175.72Z" transform="translate(-101.23 115.81)"/><path class="cls-2" d="M253.3,209.85c0,10.55,0,21.1,0,31.65,0,1.83-.4,2.44-2.31,2.36-3.81-.17-7.63-.14-11.44,0-1.67,0-2.27-.32-2.27-2.15.08-21.46.06-42.92.06-64.37,0-1.08-.2-2.27,1.57-1.95,4.05.75,8.14.43,12.19.16,1.83-.12,2.21.4,2.19,2.13C253.26,188.39,253.3,199.12,253.3,209.85Z" transform="translate(-101.23 115.81)"/><path class="cls-4" d="M430.11,124.65a.63.63,0,0,0-.44-.1c-2.44-1.71-5.38-1.39-8.09-1.85-4.4-.75-8.76-2-13.31-1.79a.53.53,0,0,0-.42-.09c-5-2-10.28-2.2-15.53-2.7l.05,0c-1.32-1.31-3.11-1-4.68-1.22-4.48-.73-8.88-2-13.47-2l0,0c-.19-.49-.62-.53-1.06-.61-7.81-1.33-15.64-2.58-23.42-4.06-4.57-.86-9.29-1.08-13.62-3l-.09-.06-1.77-1.32h0c-1.87-2.32-2.07-4.93-1.52-7.75q4.23-21.66,8.4-43.33h0l.73-.93,0,0,.66-.91,0-.1.4-.55-.16-.2.15.21.51-.61,0,0,1.18-1.4.1-.15.38-.51-.07-.12.1.09,1.09-1.42.11-.19.36-.5,0,0,1.09-1.48.07-.1,1-1.52,0,0,.57-.7C359.92,29.45,370,14.87,380,.28c.91-1.32,1.87-2.58,2.82-3.87a7.2,7.2,0,0,0,.85-7.77C382.41-14,380-15,377.1-15.07c-8.51-.09-17-.27-25.53-.32-2,0-2.78-.26-2.15-2.63,2.54-9.58,4.86-19.21,7.25-28.83,1.92-7.07,3.89-14.13,5.31-21.32l0-.19c.46-1.68.94-3.35,1.37-5,2.26-8.88,4.73-17.71,6.58-26.69v0a4.92,4.92,0,0,1,2.61,0c18.59,3.58,37.26,6.71,55.93,9.82l1.61.19a16.85,16.85,0,0,0,5.32.92l1.06.18c5.63,1.08,11.26,2.21,16.91,3.23q20.76,3.75,41.53,7.41,16.31,2.88,32.61,5.7l1.08.11c2.63.81,5.43,1,7.94,2.25l0,0a7.9,7.9,0,0,1,3.09,8q-2.08,11.49-4,23c-1.55,9.15-3,18.32-4.54,27.48l.06,0A45.59,45.59,0,0,0,529.71-6c-1.12,9.39-3.1,18.63-4.53,28-1.52,9.93-3.31,19.82-5,29.72l-.14,1.06c-.4.86-1.32,1.54-.92,2.67-.41,3.37-.81,6.74-1.22,10.11-1,3.19-1.25,6.53-1.82,9.81-1.5,8.62-2.92,17.25-4.37,25.87l-.12,1.07a23.13,23.13,0,0,0-1.08,6.39l-.17,1a3.16,3.16,0,0,0-.36,2.19l-.06.53c-1.49,5.33-1.84,10.87-2.92,16.28v.07c-.15.55-.3,1.09-.46,1.63l.05,0-.36.7-.12.09,0,.15-.49.81h0l-.76.82,0,0-.46.47-.06,0-1.48,1.12.11.13-.08-.15-1.24.67-.12-.06-.11.09a18.42,18.42,0,0,1-7.61-.13c-3.82-.61-7.59-1.73-11.52-1.53l0,0c-1.75-1.41-3.93-1.06-5.94-1.43-2.51-.47-5-1-7.55-1.41q-18.31-3.08-36.64-6.12C431.52,124.13,430.82,124.7,430.11,124.65ZM470.2-52.09a.46.46,0,0,0-.35-.31l-.14-.14a6.61,6.61,0,0,0-2.33-1.65.29.29,0,0,0-.34-.21l-1-.75-.06,0A25.75,25.75,0,0,0,458.32-59c-14.06-5.11-27.31-3.62-39.64,5-20.47,14.29-23.14,42.92-7.63,60.28.6.67,1.09,1.44,1.78,2.36-8.37,1.65-16,4.21-23,8.64a83.54,83.54,0,0,0-14.89,12c-4.34,4.4-4.74,10.09-5.73,15.64-1.63,9.07-3.34,18.12-4.93,27.19-1,5.49,1.41,8.84,6.89,10,1.12.24,2.26.42,3.4.62,15.57,2.73,31.15,5.43,46.71,8.22,6.68,1.19,13.29,2.9,20,3.79,10.91,1.45,21.7,3.57,32.53,5.42,1.3.22,2.3,1.09,3.75,1,5.07-.28,8.12-2.83,8.85-8,.32-2.27.37-4.67.87-6.82,1.71-7.5,2.94-15.07,4.28-22.63.6-3.36,1.88-6.65,1.11-10.21a43.35,43.35,0,0,0-8.08-17.11,71.75,71.75,0,0,0-21.92-19.22c10-5.61,17.25-13.22,20.65-24.12a15.94,15.94,0,0,0,1.34-4.77l.28-1.08a36.23,36.23,0,0,0-6-29.49l-.05-.08-1.31-1.87h0A3.82,3.82,0,0,0,476.11-46l-.15.16.13-.17-.41-.55-.07-.1a16.76,16.76,0,0,0-4.45-4.55h0l-.74-.73A.26.26,0,0,0,470.2-52.09Z" transform="translate(-101.23 115.81)"/><path class="cls-4" d="M122.82-10.65l0-1.08c.09-.36-.16-.49-.43-.59l0,0a41.81,41.81,0,0,0-1.63-11.22l0,0c.23-3.29-.49-6.49-.9-9.72-1.35-10.67-2.78-21.34-4.18-32a9.08,9.08,0,0,1,1.87-7.2l0,0,1.2-1,0,0c3.65-1.77,7.68-1.69,11.56-2.25,6.41-.93,12.84-1.7,19.27-2.54l1-.21L182-82.45l.49-.06,5.32-.65a2.13,2.13,0,0,0,1.61-.29l2.64-.31a3.16,3.16,0,0,0,2.16-.44l.51-.07,1.08-.12c5.34-.62,10.69-1.17,16-1.87,6.21-.8,12.41-1.73,18.62-2.6a71.36,71.36,0,0,0,10.09-1.27c10.57-1.33,21.16-2.62,31.73-4,4.64-.61,9.33-1.74,13,2.58h0c.53,1.3,1.43,2.57,1.53,3.9.57,7.31,1.77,14.52,2.71,21.78,1.13,8.82,2.45,17.62,3.46,26.46.49,4.18,1.68,8.31,1.16,12.59h0l-.66.75a.3.3,0,0,0-.24.36l-.54.67,0,0c-.29.38-.57.76-.86,1.13a.32.32,0,0,0-.21.38l-.76.9-.07.11-1.5,2,0,.07-.86,1.21,0,0-.5.61h0l-.71,1,0,0-.93,1.23-.48.6a2.84,2.84,0,0,0-1.12,1.52v0l-.74.91h0l-.91,1.21h0l-1.19,1.5.13.13-.11-.15-.51.61,0,0-.5.63,0,0-.45.63v0l-.69,1,0,0a1.71,1.71,0,0,0-.9,1.19l-.14.07v.17L277.53-5.1l0,.07c-.28.4-.56.81-.85,1.21l0,0-.74.84-.06.1c-.13.19-.27.37-.4.55l.1.16-.09-.16-.48.64.05-.05-.49.65,0,0-.74.88,0,0-1.06,1.45-.09.13-1.3,1.79-.45.6-.8,1-.34.41-.55.7-.44.59L267.42,8.2l-.06.09c-2.55,3.63-2.65,6.16-.35,9.42l0,0,.48.62c.16.19.32.37.47.56l.05,0,.52.49,0,0a5.41,5.41,0,0,0,3.61,1.39c9.72.78,19.43,1.62,29.14,2.44l.14.1c-1.54,6.64-3.11,13.27-4.62,19.91-1.76,7.76-3.48,15.53-5.21,23.29l0,.17a6.38,6.38,0,0,0-.92,2.73q-4.77,20.37-9.51,40.76l-.07,1.07c-.47,2.83-2.82,2.72-4.82,3q-24.78,3.42-49.58,6.78c-11.57,1.57-23.15,3.09-34.71,4.68-8.32,1.15-16.62,2.39-24.93,3.59l-.51.06L149,131.62l-1.63,0a13,13,0,0,1-4.87-2.48l-.17-.17c-3.09-3.2-2.42-7.4-2.86-11.25-.94-8-1.88-16-3.22-24l-.71-5.31c.06-3.42-.79-6.74-1.17-10.11-1.55-13.44-3.4-26.84-5.15-40.26Q126,13.68,122.82-10.65Zm46-20.07,0-.05c-1,.22-1.07,1.08-1.31,1.81-2.34,7.18-1.84,14.41-.36,21.64.14.68.46,1.38,1.35,1.43,3.5,10.7,9.85,19.08,20.45,24.51a62.78,62.78,0,0,0-27,25.45c-2.6,4.54-5.39,9-4.71,14.63,1.4,11.71,2.69,23.43,4.22,35.11a7.37,7.37,0,0,0,8.27,6.2q17.49-2.42,35-4.81l70.6-9.55c5.44-.73,8.32-4.32,7.64-9.76-1.2-9.66-2.63-19.31-3.71-29a21.43,21.43,0,0,0-4.22-10.71,56.54,56.54,0,0,0-13.68-13.27,68.9,68.9,0,0,0-23.37-10.23c1.26-1.45,2.32-2.73,3.43-4A39.84,39.84,0,0,0,242.69-43C229.19-59.56,207-64.24,188.88-54.39c-9.12,5-15.16,12.59-19.28,21.93C168.45-32.28,168.67-31.48,168.83-30.72Z" transform="translate(-101.23 115.81)"/><path class="cls-3" d="M299.12,91.06c2.3-9.81,4.55-19.63,6.9-29.42q5-20.79,10.1-41.56c1.45-5.95-1.35-9.63-7.5-10-7.79-.44-15.57-1-23.35-1.47-.34,0-.68-.09-1.41-.2,2.46-3.31,4.75-6.41,7.06-9.51q14.81-19.8,29.61-39.6,14.12-18.82,28.31-37.6l3.31-4.47.32.3q-6,22.47-12,44.92c-2.33,8.64-4.68,17.26-7.13,25.87-1.4,4.93,1.2,8.74,6.35,8.93,7.71.28,15.43.51,23.14.77.95,0,1.9.13,3.15.22-3.36,4.78-6.52,9.35-9.75,13.87q-19,26.63-38.06,53.21c-5.94,8.29-11.94,16.52-17.93,24.77-.28.38-.42,1-1.12.9Z" transform="translate(-101.23 115.81)"/><path class="cls-5" d="M167,129.33c8.31-1.2,16.61-2.44,24.93-3.59,11.56-1.59,23.14-3.11,34.71-4.68q24.79-3.37,49.58-6.78c2-.27,4.35-.16,4.82-3,.73,2.93-1.34,3.47-3.39,3.68-8.76.86-17.39,2.56-26.11,3.7q-14.13,1.86-28.24,3.79c-11.42,1.56-22.81,3.27-34.24,4.71q-9.69,1.23-19.33,2.69C168.86,130,167.79,130.27,167,129.33Z" transform="translate(-101.23 115.81)"/><path class="cls-5" d="M122.82-10.65Q126,13.68,129.19,38c1.75,13.42,3.6,26.82,5.15,40.26.38,3.37,1.23,6.69,1.17,10.11-1.77-.85-1.13-2.7-1.31-4-1.12-7.74-1.6-15.58-2.92-23.28s-1.7-15.55-2.93-23.27C127,29.36,126.08,20.79,125,12.25Q123.7,2.19,122.45-7.89C122.33-8.83,122-9.82,122.82-10.65Z" transform="translate(-101.23 115.81)"/><path class="cls-5" d="M527.54-72.59q-16.31-2.85-32.61-5.7-20.78-3.66-41.53-7.41c-5.65-1-11.28-2.15-16.91-3.23,1.8-1.38,3.64-.1,5.31.19,8.93,1.51,17.78,3.47,26.7,5,15.07,2.63,30.18,5,45.26,7.61,4.42.76,8.79,1.79,13.17,2.74C527.18-73.32,527.34-72.86,527.54-72.59Z" transform="translate(-101.23 115.81)"/><path class="cls-5" d="M428.5-90.22c-18.67-3.11-37.34-6.24-55.93-9.82a4.92,4.92,0,0,0-2.61,0c.12-1.37,1.13-1.18,2-1,8,1.46,16,3,24.07,4.43,9.66,1.73,19.35,3.37,29,5.11C426.23-91.34,427.71-91.59,428.5-90.22Z" transform="translate(-101.23 115.81)"/><path class="cls-5" d="M294.09-26.84c.52-4.28-.67-8.41-1.16-12.59-1-8.84-2.33-17.64-3.46-26.46-.94-7.26-2.14-14.47-2.71-21.78-.1-1.33-1-2.6-1.53-3.9,2.12.79,2.34,2.84,2.59,4.54.89,6.09,1.43,12.22,2.26,18.32.92,6.79,1.56,13.62,2.48,20.41.88,6.53,1.72,13.07,2.74,19.58C295.44-27.77,295.37-26.9,294.09-26.84Z" transform="translate(-101.23 115.81)"/><path class="cls-5" d="M520.19,51.64c1.68-9.9,3.47-19.79,5-29.72,1.43-9.33,3.41-18.57,4.53-28a45.59,45.59,0,0,1,1.43-5.81c.24,4.88-.94,9.61-1.71,14.37C528,11.37,526.51,20.21,524.84,29c-1.26,6.66-2.25,13.35-3.33,20C521.38,49.89,521.67,51.32,520.19,51.64Z" transform="translate(-101.23 115.81)"/><path class="cls-5" d="M531.08-11.8c1.51-9.16,3-18.33,4.54-27.48q1.93-11.52,4-23a7.9,7.9,0,0,0-3.09-8c2.62.43,4.76,3.89,4.24,6.84-2.08,11.77-4.26,23.52-6.18,35.31-.83,5-1.67,10.06-2.74,15C531.73-12.53,531.73-12,531.08-11.8Z" transform="translate(-101.23 115.81)"/><path class="cls-5" d="M117.59-72.39a9.08,9.08,0,0,0-1.87,7.2c1.4,10.67,2.83,21.34,4.18,32,.41,3.23,1.13,6.43.9,9.72-1.69-3.74-1.63-7.82-2.15-11.76-1.17-9-2.34-18.05-3.62-27.07-.38-2.73-.76-5.63.54-8.33C116-71.49,116.33-72.47,117.59-72.39Z" transform="translate(-101.23 115.81)"/><path class="cls-5" d="M341.18,54.84q-4.19,21.68-8.4,43.33c-.55,2.82-.35,5.43,1.52,7.75-2-.93-3.16-3.53-2.63-6.19,1.84-9.38,3.77-18.74,5.59-28.13.87-4.48,1.48-9,2.38-13.47C339.87,57,339.43,55.34,341.18,54.84Z" transform="translate(-101.23 115.81)"/><path class="cls-2" d="M432.23,124.62q18.31,3.06,36.64,6.12c2.53.43,5,.94,7.55,1.41a3,3,0,0,1,0,.42c-4.25.12-8.34-1-12.49-1.69-10.2-1.59-20.36-3.46-30.54-5.24a5.62,5.62,0,0,1-1.16-.51C432.23,125,432.23,124.79,432.23,124.62Z" transform="translate(-101.23 115.81)"/><path class="cls-5" d="M285.24-91.56c-3.64-4.32-8.33-3.19-13-2.58-10.57,1.39-21.16,2.68-31.73,4,.22-1.14,1.15-.82,1.9-.94,6.94-1.13,14-1.6,20.89-3a138.07,138.07,0,0,1,14.4-1.76C281.39-96.15,284.73-94.13,285.24-91.56Z" transform="translate(-101.23 115.81)"/><path class="cls-5" d="M281.14,110.22q4.75-20.39,9.51-40.76a6.38,6.38,0,0,1,.92-2.73c.07,4.2-1.23,8.18-2.23,12.15-2.42,9.55-4.45,19.18-6.76,28.75C282.35,108.58,282.47,109.83,281.14,110.22Z" transform="translate(-101.23 115.81)"/><path class="cls-5" d="M291.6,66.56c1.73-7.76,3.45-15.53,5.21-23.29,1.51-6.64,3.08-13.27,4.62-19.91.75.22.92.71.72,1.43-3.71,13.28-5.8,27-9.72,40.18C292.26,65.54,292.24,66.23,291.6,66.56Z" transform="translate(-101.23 115.81)"/><path class="cls-5" d="M336.15,107.29c4.33,1.91,9.05,2.13,13.62,3,7.78,1.48,15.61,2.73,23.42,4.06.44.08.87.12,1.06.61-5.13,0-10.11-1.23-15.13-2.08-6.77-1.14-13.56-2.12-20.22-3.78C337.87,108.84,336.23,109.13,336.15,107.29Z" transform="translate(-101.23 115.81)"/><path class="cls-5" d="M230.45-88.86c-6.21.87-12.41,1.8-18.62,2.6-5.33.7-10.68,1.25-16,1.87,2.41-1.62,5.28-1.41,7.95-1.82,7.8-1.19,15.63-2.14,23.45-3.14C228.3-89.49,229.51-89.9,230.45-88.86Z" transform="translate(-101.23 115.81)"/><path class="cls-5" d="M370-100.09c-1.85,9-4.32,17.81-6.58,26.69-.43,1.69-.91,3.36-1.37,5a13.1,13.1,0,0,1,.56-6c2.44-8,4-16.22,6.21-24.27C369-99.35,369-100.08,370-100.09Z" transform="translate(-101.23 115.81)"/><path class="cls-5" d="M136.22,93.69c1.34,8,2.28,16,3.22,24,.44,3.85-.23,8,2.86,11.25-2.31-.07-2.62-2.12-2.81-3.52-1.4-10.19-2.58-20.4-3.82-30.61A1.16,1.16,0,0,1,136.22,93.69Z" transform="translate(-101.23 115.81)"/><path class="cls-5" d="M301.29,23.26c-9.71-.82-19.42-1.66-29.14-2.44a5.41,5.41,0,0,1-3.61-1.39c9.51,1.73,19.18,1.53,28.76,2.46C298.64,22,300.32,21.78,301.29,23.26Z" transform="translate(-101.23 115.81)"/><path class="cls-5" d="M182-82.45l-31.45,4.16c.09-.94.76-1,1.51-1.07,9-1.2,18-2.46,27-3.65C180-83.13,181.18-83.48,182-82.45Z" transform="translate(-101.23 115.81)"/><path class="cls-5" d="M149.57-78.08c-6.43.84-12.86,1.61-19.27,2.54-3.88.56-7.91.48-11.56,2.25.29-1.45,1.49-1.62,2.62-1.78,8.52-1.26,17-2.51,25.56-3.7C147.82-78.9,148.91-79.15,149.57-78.08Z" transform="translate(-101.23 115.81)"/><path class="cls-5" d="M511.72,101.16c1.45-8.62,2.87-17.25,4.37-25.87.57-3.28.79-6.62,1.82-9.81.73.49.65,1.24.53,1.92q-2.91,16.45-5.84,32.91A1,1,0,0,1,511.72,101.16Z" transform="translate(-101.23 115.81)"/><path class="cls-5" d="M408.27,120.91c4.55-.23,8.91,1,13.31,1.79,2.71.46,5.65.14,8.09,1.85A97.69,97.69,0,0,1,408.27,120.91Z" transform="translate(-101.23 115.81)"/><path class="cls-5" d="M362-68.17c-1.42,7.19-3.39,14.25-5.31,21.32a1.33,1.33,0,0,1-.49-1.63q2.49-9.35,5-18.67C361.32-67.53,361.72-67.83,362-68.17Z" transform="translate(-101.23 115.81)"/><path class="cls-5" d="M374.22,114.93c4.59,0,9,1.27,13.47,2,1.57.26,3.36-.09,4.68,1.22A66.62,66.62,0,0,1,374.22,114.93Z" transform="translate(-101.23 115.81)"/><path class="cls-5" d="M149,131.62l17.55-2.23c-.75,1.63-2.34,1-3.54,1.2-3.89.6-7.82,1-11.74,1.43A2.54,2.54,0,0,1,149,131.62Z" transform="translate(-101.23 115.81)"/><path class="cls-5" d="M482.32,133.54c3.93-.2,7.7.92,11.52,1.53a18.42,18.42,0,0,0,7.61.13c-.09.56-.3,1.05-.95,1.06A52.23,52.23,0,0,1,482.32,133.54Z" transform="translate(-101.23 115.81)"/><path class="cls-5" d="M392.32,118.12c5.25.5,10.54.71,15.53,2.7C402.66,120,397.34,119.92,392.32,118.12Z" transform="translate(-101.23 115.81)"/><path class="cls-5" d="M507,128.62c1.08-5.41,1.43-11,2.92-16.28.18.28.55.6.5.85-.85,5-1.76,9.92-2.66,14.88C507.7,128.49,507.38,128.61,507,128.62Z" transform="translate(-101.23 115.81)"/><path class="cls-5" d="M120.77-23.5a41.81,41.81,0,0,1,1.63,11.22A29.72,29.72,0,0,1,120.77-23.5Z" transform="translate(-101.23 115.81)"/><path class="cls-5" d="M267,17.71c-2.3-3.26-2.2-5.79.35-9.42,0,.08.12.18.09.24A13,13,0,0,0,267,17.71Z" transform="translate(-101.23 115.81)"/><path class="cls-5" d="M536.56-70.23c-2.51-1.24-5.31-1.44-7.94-2.25C531.64-73.43,535.2-72.42,536.56-70.23Z" transform="translate(-101.23 115.81)"/><path class="cls-5" d="M510.52,108.62a23.13,23.13,0,0,1,1.08-6.39C511.91,104.47,512.29,106.73,510.52,108.62Z" transform="translate(-101.23 115.81)"/><path class="cls-5" d="M142.47,129.12a13,13,0,0,0,4.87,2.48C145,132.19,143.15,131.25,142.47,129.12Z" transform="translate(-101.23 115.81)"/><path class="cls-5" d="M435.43-89.11a16.85,16.85,0,0,1-5.32-.92C432-90.38,433.84-90.51,435.43-89.11Z" transform="translate(-101.23 115.81)"/><path class="cls-5" d="M476.41,132.57a3,3,0,0,0,0-.42c2,.37,4.19,0,5.94,1.43A13.65,13.65,0,0,1,476.41,132.57Z" transform="translate(-101.23 115.81)"/><path class="cls-5" d="M187.81-83.16l-5.32.65C184.07-84.35,185.94-83.7,187.81-83.16Z" transform="translate(-101.23 115.81)"/><path class="cls-5" d="M519.13,55.37c-.4-1.13.52-1.81.92-2.67C521.1,54.06,520.32,54.79,519.13,55.37Z" transform="translate(-101.23 115.81)"/><path class="cls-5" d="M289.27-20.53l1.5-2C291.23-21.2,290.61-20.6,289.27-20.53Z" transform="translate(-101.23 115.81)"/><path class="cls-5" d="M271.35,3.16l1.3-1.79C273.22,2.69,272.45,3.05,271.35,3.16Z" transform="translate(-101.23 115.81)"/><path class="cls-5" d="M510,111.81a3.16,3.16,0,0,1,.36-2.19C511.61,110.57,510.89,111.21,510,111.81Z" transform="translate(-101.23 115.81)"/><path class="cls-5" d="M192.06-83.76l-2.64.31C190.17-84.62,191.11-84.21,192.06-83.76Z" transform="translate(-101.23 115.81)"/><path class="cls-5" d="M267.42,8.2l1.35-1.79C268.67,7.28,268.89,8.38,267.42,8.2Z" transform="translate(-101.23 115.81)"/><path class="cls-5" d="M334.29,105.91l1.77,1.32C334.77,107.73,334.38,107,334.29,105.91Z" transform="translate(-101.23 115.81)"/><path class="cls-5" d="M432.23,124.62c0,.17,0,.34,0,.51-.72-.08-1.53.23-2.11-.48C430.82,124.7,431.52,124.13,432.23,124.62Z" transform="translate(-101.23 115.81)"/><path class="cls-5" d="M344.65,50.41l-1.18,1.4C343.36,50.92,343.42,50.17,344.65,50.41Z" transform="translate(-101.23 115.81)"/><path class="cls-5" d="M272.74,1.24,273.8-.21C274.08.74,274,1.41,272.74,1.24Z" transform="translate(-101.23 115.81)"/><path class="cls-5" d="M277.53-5.1l1.26-1.59C278.82-5.81,278.79-5,277.53-5.1Z" transform="translate(-101.23 115.81)"/><path class="cls-5" d="M284.69-14.41a2.84,2.84,0,0,1,1.12-1.52C285.81-15.15,285.77-14.39,284.69-14.41Z" transform="translate(-101.23 115.81)"/><path class="cls-5" d="M348.91,44.48l-1,1.52C347.51,45,347.71,44.41,348.91,44.48Z" transform="translate(-101.23 115.81)"/><path class="cls-5" d="M347.84,46.1l-1.09,1.48C346.5,46.64,346.62,46,347.84,46.1Z" transform="translate(-101.23 115.81)"/><path class="cls-5" d="M346.25,48.3l-1.09,1.42C344.92,48.79,345,48.07,346.25,48.3Z" transform="translate(-101.23 115.81)"/><path class="cls-5" d="M118.77-73.32l-1.2,1C117.58-73.17,118-73.51,118.77-73.32Z" transform="translate(-101.23 115.81)"/><path class="cls-5" d="M288.36-19.25l.86-1.21C289.58-19.59,289.22-19.24,288.36-19.25Z" transform="translate(-101.23 115.81)"/><path class="cls-5" d="M502.89,134.52l1.48-1.12C504.46,134.53,503.81,134.7,502.89,134.52Z" transform="translate(-101.23 115.81)"/><path class="cls-5" d="M286.29-16.53l.93-1.23C287.43-17,287.09-16.57,286.29-16.53Z" transform="translate(-101.23 115.81)"/><path class="cls-5" d="M276.63-3.82c.29-.4.57-.81.85-1.21C277.87-4.15,277.51-3.8,276.63-3.82Z" transform="translate(-101.23 115.81)"/><path class="cls-5" d="M283.05-12.32l.91-1.21C284.24-12.69,283.91-12.31,283.05-12.32Z" transform="translate(-101.23 115.81)"/><path class="cls-5" d="M281.87-10.83l1.19-1.5C283.11-11.48,282.86-10.86,281.87-10.83Z" transform="translate(-101.23 115.81)"/><path class="cls-5" d="M291.81-24c.29-.37.57-.75.86-1.13C292.73-24.46,292.49-24,291.81-24Z" transform="translate(-101.23 115.81)"/><path class="cls-5" d="M506.56,130.32c.16-.54.31-1.08.46-1.63C507.28,129.35,507.55,130,506.56,130.32Z" transform="translate(-101.23 115.81)"/><path class="cls-5" d="M278.93-6.93a1.71,1.71,0,0,1,.9-1.19C280-7.4,279.68-7,278.93-6.93Z" transform="translate(-101.23 115.81)"/><path class="cls-5" d="M290.84-22.69l.76-.9C291.59-23.08,291.6-22.56,290.84-22.69Z" transform="translate(-101.23 115.81)"/><path class="cls-5" d="M279.79-8.08l.69-1C280.45-8.58,280.33-8.18,279.79-8.08Z" transform="translate(-101.23 115.81)"/><path class="cls-5" d="M275.92-3l.74-.84C276.67-3.34,276.67-2.84,275.92-3Z" transform="translate(-101.23 115.81)"/><path class="cls-5" d="M342.54,53l-.66.91C341.79,53.41,341.74,52.92,342.54,53Z" transform="translate(-101.23 115.81)"/><path class="cls-5" d="M273.83-.25l.74-.88C274.56-.64,274.51-.18,273.83-.25Z" transform="translate(-101.23 115.81)"/><path class="cls-5" d="M341.91,53.91l-.73.93C341.21,54.37,341.31,53.94,341.91,53.91Z" transform="translate(-101.23 115.81)"/><path class="cls-5" d="M501.68,135.17l1.24-.67C502.77,135.22,502.23,135.19,501.68,135.17Z" transform="translate(-101.23 115.81)"/><path class="cls-5" d="M270.1,4.71l.8-1C270.85,4.26,270.67,4.66,270.1,4.71Z" transform="translate(-101.23 115.81)"/><path class="cls-5" d="M284-13.52l.74-.91C284.69-13.93,284.62-13.49,284-13.52Z" transform="translate(-101.23 115.81)"/><path class="cls-5" d="M504.93,132.84l.76-.82C505.66,132.5,505.6,133,504.93,132.84Z" transform="translate(-101.23 115.81)"/><path class="cls-5" d="M293.43-26.1l.66-.75C294.2-26.31,293.86-26.17,293.43-26.1Z" transform="translate(-101.23 115.81)"/><path class="cls-5" d="M287.19-17.72l.71-1C287.89-18.19,287.81-17.76,287.19-17.72Z" transform="translate(-101.23 115.81)"/><path class="cls-3" d="M299.08,91l-.13.68c-.07,0-.2-.07-.21-.13-.05-.29.06-.49.38-.51Z" transform="translate(-101.23 115.81)"/><path class="cls-5" d="M280.49-9.06l.45-.63Z" transform="translate(-101.23 115.81)"/><path class="cls-5" d="M287.89-18.67l.5-.61Z" transform="translate(-101.23 115.81)"/><path class="cls-5" d="M194.73-84.27l-.51.07C194.36-84.46,194.52-84.51,194.73-84.27Z" transform="translate(-101.23 115.81)"/><path class="cls-5" d="M346.72,47.61l-.36.5C346.19,47.74,346.35,47.6,346.72,47.61Z" transform="translate(-101.23 115.81)"/><path class="cls-5" d="M281.38-10.24l.51-.61A.53.53,0,0,1,281.38-10.24Z" transform="translate(-101.23 115.81)"/><path class="cls-5" d="M268.51,19.4l-.52-.49C268.39,18.83,268.56,19,268.51,19.4Z" transform="translate(-101.23 115.81)"/><path class="cls-5" d="M292.65-25.07l.54-.67Z" transform="translate(-101.23 115.81)"/><path class="cls-5" d="M267.94,18.87c-.15-.19-.31-.37-.47-.55C267.86,18.3,268,18.47,267.94,18.87Z" transform="translate(-101.23 115.81)"/><path class="cls-5" d="M267.47,18.31l-.48-.62A.49.49,0,0,1,267.47,18.31Z" transform="translate(-101.23 115.81)"/><path class="cls-5" d="M506.25,131l.36-.7Z" transform="translate(-101.23 115.81)"/><path class="cls-5" d="M280.91-9.65l.5-.63Z" transform="translate(-101.23 115.81)"/><path class="cls-5" d="M505.68,132l.49-.81Z" transform="translate(-101.23 115.81)"/><path class="cls-5" d="M269.21,5.82l.55-.7Z" transform="translate(-101.23 115.81)"/><path class="cls-5" d="M349.46,43.74l-.57.7C348.84,44,349.07,43.81,349.46,43.74Z" transform="translate(-101.23 115.81)"/><path class="cls-5" d="M504.43,133.36l.46-.47C505,133.28,504.81,133.43,504.43,133.36Z" transform="translate(-101.23 115.81)"/><path class="cls-5" d="M122.36-12.32c.27.1.52.23.43.59Z" transform="translate(-101.23 115.81)"/><path class="cls-5" d="M274.55-1.11l.49-.65Z" transform="translate(-101.23 115.81)"/><path class="cls-5" d="M275-1.71l.48-.64A.52.52,0,0,1,275-1.71Z" transform="translate(-101.23 115.81)"/><path class="cls-3" d="M352.15-82.74a4.21,4.21,0,0,1,.54-.27c.19.27,0,.45-.22.57Z" transform="translate(-101.23 115.81)"/><path class="cls-5" d="M275.46-2.35c.13-.18.27-.36.4-.55C276-2.51,275.84-2.34,275.46-2.35Z" transform="translate(-101.23 115.81)"/><path class="cls-5" d="M343,52.38l-.4.55C342.45,52.55,342.61,52.38,343,52.38Z" transform="translate(-101.23 115.81)"/><path class="cls-5" d="M343.49,51.78l-.51.61A.5.5,0,0,1,343.49,51.78Z" transform="translate(-101.23 115.81)"/><path class="cls-5" d="M345.13,49.75l-.38.51C344.59,49.87,344.75,49.73,345.13,49.75Z" transform="translate(-101.23 115.81)"/><path class="cls-5" d="M484.91-12.8l-.28,1.08c-.9,1.46-2,2.86-1.34,4.77C479.89,4,472.6,11.56,462.64,17.17a71.75,71.75,0,0,1,21.92,19.22,43.35,43.35,0,0,1,8.08,17.11c.77,3.56-.51,6.85-1.11,10.21-1.34,7.56-2.57,15.13-4.28,22.63-.5,2.15-.55,4.55-.87,6.82-.73,5.14-3.78,7.69-8.85,8-1.45.08-2.45-.79-3.75-1-10.83-1.85-21.62-4-32.53-5.42-6.71-.89-13.32-2.6-20-3.79-15.56-2.79-31.14-5.49-46.71-8.22-1.14-.2-2.28-.38-3.4-.62-5.48-1.17-7.85-4.52-6.89-10,1.59-9.07,3.3-18.12,4.93-27.19,1-5.55,1.39-11.24,5.73-15.64a83.54,83.54,0,0,1,14.89-12c7-4.43,14.66-7,23-8.64-.69-.92-1.18-1.69-1.78-2.36-15.51-17.36-12.84-46,7.63-60.28,12.33-8.61,25.58-10.1,39.64-5A13.41,13.41,0,0,0,466-55.18l.06,0c-.07.78.46.76,1,.75a.29.29,0,0,1,.34.21c.34,1.16.78,2.19,2.33,1.65l.14.14c-.12.36-.05.52.35.31a.26.26,0,0,1,.23.17c-.23.73.28.71.74.73h0a7.17,7.17,0,0,0,4.45,4.55l.07.1c-.12.37,0,.54.41.55l-.13.17.15-.16c-.3,1.22.31,1.69,1.42,1.76h0c0,.9-.18,2,1.31,1.87l.05.08c-.62,1.68.85,2.58,1.48,3.76,3.83,7.22,5.5,14.8,4.12,23C484.32-14.67,484.08-13.61,484.91-12.8Zm-58,34.36c-15.58-.2-29,5.17-40.61,15.3a6.84,6.84,0,0,0-2.66,4.35c-1.32,8.75-2.85,17.46-4.45,26.16-.28,1.56.3,1.69,1.52,2,8.51,2,17.17,3.31,25.74,4.9,7.3,1.36,14.71,2.51,22.07,3.7,14.38,2.33,28.73,4.88,43.07,7.45,1.82.32,2.47,0,2.71-1.87,1-7.56,2.65-15,4.07-22.46.53-2.81,1.21-5.56-.38-8.5C467,32.21,449.73,22.35,426.94,21.56ZM416.09-20c-.65,14.82,11.35,27.21,26.85,27.23,15.75,0,28.27-12.13,28.29-27.43s-12.48-27.27-28.71-27.18C428-47.35,415.31-34.13,416.09-20Z" transform="translate(-101.23 115.81)"/><path class="cls-2" d="M484.91-12.8c-.83-.81-.59-1.87-.43-2.77,1.38-8.16-.29-15.74-4.12-23-.63-1.18-2.1-2.08-1.48-3.76A36.23,36.23,0,0,1,484.91-12.8Z" transform="translate(-101.23 115.81)"/><path class="cls-2" d="M466-55.18A13.41,13.41,0,0,1,458.32-59,25.75,25.75,0,0,1,466-55.18Z" transform="translate(-101.23 115.81)"/><path class="cls-2" d="M475.61-46.65a7.17,7.17,0,0,1-4.45-4.55A16.76,16.76,0,0,1,475.61-46.65Z" transform="translate(-101.23 115.81)"/><path class="cls-2" d="M483.29-6.95c-.67-1.91.44-3.31,1.34-4.77A15.94,15.94,0,0,1,483.29-6.95Z" transform="translate(-101.23 115.81)"/><path class="cls-2" d="M469.71-52.54c-1.55.54-2-.49-2.33-1.65A6.61,6.61,0,0,1,469.71-52.54Z" transform="translate(-101.23 115.81)"/><path class="cls-2" d="M477.53-44.23c-1.11-.07-1.72-.54-1.42-1.76A3.82,3.82,0,0,1,477.53-44.23Z" transform="translate(-101.23 115.81)"/><path class="cls-2" d="M478.83-42.37c-1.49.11-1.27-1-1.31-1.87Z" transform="translate(-101.23 115.81)"/><path class="cls-2" d="M467-54.4c-.53,0-1.06,0-1-.75Z" transform="translate(-101.23 115.81)"/><path class="cls-2" d="M471.17-51.19c-.46,0-1,0-.74-.73Z" transform="translate(-101.23 115.81)"/><path class="cls-2" d="M476.09-46c-.37,0-.53-.18-.41-.55Z" transform="translate(-101.23 115.81)"/><path class="cls-2" d="M470.2-52.09c-.4.21-.47.05-.35-.31A.46.46,0,0,1,470.2-52.09Z" transform="translate(-101.23 115.81)"/><path class="cls-5" d="M169.6-32.46c4.12-9.34,10.16-17,19.28-21.93C207-64.24,229.19-59.56,242.69-43A39.84,39.84,0,0,1,241.5,8.73c-1.11,1.23-2.17,2.51-3.43,4a68.9,68.9,0,0,1,23.37,10.23,56.54,56.54,0,0,1,13.68,13.27,21.43,21.43,0,0,1,4.22,10.71c1.08,9.68,2.51,19.33,3.71,29,.68,5.44-2.2,9-7.64,9.76l-70.6,9.55q-17.51,2.37-35,4.81a7.37,7.37,0,0,1-8.27-6.2c-1.53-11.68-2.82-23.4-4.22-35.11-.68-5.61,2.11-10.09,4.71-14.63a62.78,62.78,0,0,1,27-25.45c-10.6-5.43-16.95-13.81-20.45-24.51a45.82,45.82,0,0,1,.32-24.88l0,.05A2.26,2.26,0,0,0,169.6-32.46Zm11.52,73.8c-.38-.11-.51,0-.38.39l-.11.15c-.69-.21-.73.27-.77.74h0a.94.94,0,0,0-1.07,1.07l-.45.54c-.84,0-1.21.38-.91,1.23l0,0c-.37,0-.53.11-.38.48l-.12.17c-1.21-.22-1.27.51-1.15,1.4l-.17-.13.18.12c-.37,0-.52.22-.41.59l0,.07c-.73-.09-.73.39-.68.9l0,0A11.53,11.53,0,0,0,170,59.82c.38,2,.45,4,.77,6,1,6.08,1.17,12.27,2.64,18.28.14.6.37,1,.95,1.11l.09,0,.24.64.32-.56,1.07-.1c.2.27.37.24.52,0l.53-.06c.73.81,1.28.76,1.61-.33l1.08-.09c.82.61,1.58.83,2.12-.34l1.61-.23a9.11,9.11,0,0,0,7.44-1c11.21-1.61,22.41-3.24,33.63-4.82q20.9-3,41.82-5.83c1.57-.21,1.84-.74,1.65-2.18-1-7.47-1.82-14.95-2.79-22.41-.32-2.43-.62-4.8-2.67-6.71a62.67,62.67,0,0,0-27.42-15.09A59.36,59.36,0,0,0,213.91,25c-.22-.14-.46-.43-.64-.4a63.5,63.5,0,0,0-16.85,4.94c-.68.32-1.59.52-1.41,1.62l-.07,0c-1.64,0-3.08.3-3.73,2.06l-.15,0,.15,0a.55.55,0,0,0-.68.4l0,0c-1.59-.06-2.78.46-3.19,2.15h0a.9.9,0,0,0-1.14.95l-.84.66c-.79-.08-1.27.2-1.21,1.08l0,0-.6.51h0c-.47,0-1,.05-.77.75l-.13.11c-.38-.13-.5,0-.38.37l-.15.15q-.57-.18-.39.39l-.14.13c-.38-.11-.51,0-.4.4ZM209.47,9.49c15.63.62,27.64-13,27.49-27.73-.14-14.53-13-26.69-28.09-26.5A27.2,27.2,0,0,0,181.74-16.9C181.83-1.93,195.51,10.21,209.47,9.49Z" transform="translate(-101.23 115.81)"/><path class="cls-4" d="M426.94,21.56c22.79.79,40.07,10.65,51.08,31,1.59,2.94.91,5.69.38,8.5-1.42,7.47-3.11,14.9-4.07,22.46-.24,1.91-.89,2.19-2.71,1.87-14.34-2.57-28.69-5.12-43.07-7.45-7.36-1.19-14.77-2.34-22.07-3.7-8.57-1.59-17.23-2.89-25.74-4.9-1.22-.28-1.8-.41-1.52-2,1.6-8.7,3.13-17.41,4.45-26.16a6.84,6.84,0,0,1,2.66-4.35C398,26.73,411.36,21.36,426.94,21.56Z" transform="translate(-101.23 115.81)"/><path class="cls-4" d="M416.09-20c-.78-14.09,11.86-27.31,26.43-27.38,16.23-.09,28.72,11.86,28.71,27.18S458.69,7.21,442.94,7.19C427.44,7.17,415.44-5.22,416.09-20Z" transform="translate(-101.23 115.81)"/><path class="cls-4" d="M179.85,84.74l-1.08.09-1.61.33-.53.06-.52,0-1.07.1-.56-.08-.09,0c-.89-6.4-1.4-12.87-2.77-19.17s-1-11.86,3-17l0,0,.68-.9,0-.07c.14-.2.27-.4.41-.59l-.18-.12.17.13,1.15-1.4L177,46l.38-.48,0,0,.91-1.23.45-.54,1.07-1.07h0l.77-.74.11-.15.38-.39.13-.13c.14-.13.27-.26.4-.4l.14-.13.39-.39.15-.15.38-.37.13-.11.77-.75h0l.6-.51,0,0,1.21-1.08.84-.66a1.55,1.55,0,0,0,1.14-.95h0a9.46,9.46,0,0,0,3.19-2.15l0,0,.68-.4-.15,0,.15,0,3.73-2.06.07,0A75.65,75.65,0,0,1,213.91,25a59.36,59.36,0,0,1,21.33,1.13A62.67,62.67,0,0,1,262.66,41.2c2,1.91,2.35,4.28,2.67,6.71,1,7.46,1.82,14.94,2.79,22.41.19,1.44-.08,2-1.65,2.18q-20.93,2.84-41.82,5.83c-11.22,1.58-22.42,3.21-33.63,4.82l-7.44,1L182,84.4Z" transform="translate(-101.23 115.81)"/><path class="cls-4" d="M209.47,9.49c-14,.72-27.64-11.42-27.73-26.39a27.2,27.2,0,0,1,27.13-27.84c15.09-.19,27.95,12,28.09,26.5C237.11-3.51,225.1,10.11,209.47,9.49Z" transform="translate(-101.23 115.81)"/><path class="cls-2" d="M174.65,49.07c-4.07,5.13-4.39,10.75-3,17s1.88,12.77,2.77,19.17c-.58-.14-.81-.51-.95-1.11-1.47-6-1.68-12.2-2.64-18.28-.32-2-.39-4-.77-6A11.53,11.53,0,0,1,174.65,49.07Z" transform="translate(-101.23 115.81)"/><path class="cls-2" d="M213.91,25A75.65,75.65,0,0,0,195,31.14c-.18-1.1.73-1.3,1.41-1.62a63.5,63.5,0,0,1,16.85-4.94C213.45,24.55,213.69,24.84,213.91,25Z" transform="translate(-101.23 115.81)"/><path class="cls-2" d="M183.58,84.17l7.44-1A9.11,9.11,0,0,1,183.58,84.17Z" transform="translate(-101.23 115.81)"/><path class="cls-2" d="M194.94,31.17l-3.73,2.06C191.86,31.47,193.3,31.13,194.94,31.17Z" transform="translate(-101.23 115.81)"/><path class="cls-2" d="M190.55,33.6a9.46,9.46,0,0,1-3.19,2.15C187.77,34.06,189,33.54,190.55,33.6Z" transform="translate(-101.23 115.81)"/><path class="cls-2" d="M179.85,84.74,182,84.4C181.43,85.57,180.67,85.35,179.85,84.74Z" transform="translate(-101.23 115.81)"/><path class="cls-2" d="M177.16,85.16l1.61-.33C178.44,85.92,177.89,86,177.16,85.16Z" transform="translate(-101.23 115.81)"/><path class="cls-2" d="M176.9,46.15l-1.15,1.4C175.63,46.66,175.69,45.93,176.9,46.15Z" transform="translate(-101.23 115.81)"/><path class="cls-2" d="M185.39,37.35l-1.21,1.08C184.12,37.55,184.6,37.27,185.39,37.35Z" transform="translate(-101.23 115.81)"/><path class="cls-2" d="M178.34,44.23l-.91,1.23C177.13,44.61,177.5,44.25,178.34,44.23Z" transform="translate(-101.23 115.81)"/><path class="cls-2" d="M187.37,35.74a1.55,1.55,0,0,1-1.14.95A.9.9,0,0,1,187.37,35.74Z" transform="translate(-101.23 115.81)"/><path class="cls-2" d="M179.86,42.62l-1.07,1.07A.94.94,0,0,1,179.86,42.62Z" transform="translate(-101.23 115.81)"/><path class="cls-2" d="M175.31,48.2l-.68.9C174.58,48.59,174.58,48.11,175.31,48.2Z" transform="translate(-101.23 115.81)"/><path class="cls-2" d="M180.63,41.88l-.77.74C179.9,42.15,179.94,41.67,180.63,41.88Z" transform="translate(-101.23 115.81)"/><path class="cls-2" d="M174.48,85.28l.56.08-.32.56Z" transform="translate(-101.23 115.81)"/><path class="cls-2" d="M183.61,38.91l-.77.75C182.66,39,183.14,38.93,183.61,38.91Z" transform="translate(-101.23 115.81)"/><path class="cls-2" d="M182.18,40.29l-.39.39Q181.61,40.11,182.18,40.29Z" transform="translate(-101.23 115.81)"/><path class="cls-2" d="M182.71,39.77l-.38.37C182.21,39.76,182.33,39.64,182.71,39.77Z" transform="translate(-101.23 115.81)"/><path class="cls-2" d="M176.11,85.26l.52,0C176.48,85.5,176.31,85.53,176.11,85.26Z" transform="translate(-101.23 115.81)"/><path class="cls-2" d="M181.65,40.81c-.13.14-.26.27-.4.4C181.14,40.83,181.27,40.7,181.65,40.81Z" transform="translate(-101.23 115.81)"/><path class="cls-2" d="M191.21,33.22l-.68.4A.55.55,0,0,1,191.21,33.22Z" transform="translate(-101.23 115.81)"/><path class="cls-2" d="M181.12,41.34l-.38.39C180.61,41.35,180.74,41.23,181.12,41.34Z" transform="translate(-101.23 115.81)"/><path class="cls-2" d="M177.4,45.5,177,46C176.87,45.61,177,45.47,177.4,45.5Z" transform="translate(-101.23 115.81)"/><path class="cls-2" d="M175.76,47.54c-.14.19-.27.39-.41.59C175.24,47.76,175.39,47.58,175.76,47.54Z" transform="translate(-101.23 115.81)"/><path class="cls-2" d="M184.2,38.41l-.6.51Z" transform="translate(-101.23 115.81)"/></svg>